<svg version="1.1" xmlns="http://www.w3.org/2000/svg" xmlns:xlink="http://www.w3.org/1999/xlink" x="0px" y="0px" viewBox="0 0 100 100"
     style="enable-background:new 0 0 100 100;" xml:space="preserve">
    <style type="text/css">
        .st0{fill:#222222;}
        .st1{fill:none;stroke:#FFFFFF;stroke-width:1.74;stroke-miterlimit:10;}
    </style>
    <path fill="#FFFFFF" d="M82.9,73.7H17.1c-1.4,0-2.5-1.1-2.5-2.5V37c0-1.4,1.1-2.5,2.5-2.5h65.8c1.4,0,2.5,1.1,2.5,2.5v34.2 C85.4,72.6,84.3,73.7,82.9,73.7z"/>
    <path fill="#FFFFFF" d="M60.8,26.3c-7.2,0-14.3,0-21.5,0c-1.1,0-2.6,1.1-3.2,2.5c-0.8,1.7-1.5,3.5-2.3,5.2c-0.6,1.3,0.1,2.8,1.7,3.1 c9.6,1.9,19.6,1.9,29.2,0c1.6-0.3,2.3-1.8,1.7-3.1c-0.8-1.7-1.5-3.5-2.3-5.2C63.3,27.5,61.9,26.3,60.8,26.3z"/>
    <circle class="st0" cx="50" cy="54.1" r="17.3"/>
    <circle class="st1" cx="50" cy="54.1" r="14.1"/>
    <path class="st0" d="M81,42.1h-7.5c-0.7,0-1.2-0.5-1.2-1.2v-1.8c0-0.7,0.5-1.2,1.2-1.2H81c0.7,0,1.2,0.5,1.2,1.2v1.8
        C82.2,41.6,81.7,42.1,81,42.1z"/>
    <polygon class="st0" points="47.8,57.8 45.7,54.1 47.8,50.4 52.2,50.4 54.3,54.1 52.2,57.8"/>
    <path fill="#FFFFFF" d="M38.4,50.5c-0.3,1.1-0.5,2.3-0.5,3.6c0,3.1,1.1,5.8,3,8l6.7-11.5L38.4,50.5L38.4,50.5z"/>
    <path fill="#FFFFFF" d="M41.1,62.3c2.2,2.4,5.4,3.9,8.9,3.9c0.8,0,1.6-0.1,2.3-0.2l-6.6-11.6L41.1,62.3z"/>
    <path fill="#FFFFFF" d="M58.8,45.8C56.6,43.5,53.5,42,50,42c-0.8,0-1.6,0.1-2.4,0.2l6.6,11.5L58.8,45.8z"/>
    <path fill="#FFFFFF" d="M47.3,42.3c-4.1,0.9-7.5,4-8.8,7.9h13.3L47.3,42.3z"/>
    <path fill="#FFFFFF" d="M61.6,57.7c0.3-1.1,0.5-2.3,0.5-3.6c0-3.1-1.2-5.9-3.1-8.1l-6.6,11.6L61.6,57.7L61.6,57.7z"/>
    <path fill="#FFFFFF" d="M52.6,65.9c4.2-0.9,7.5-4,8.8-7.9H48.1L52.6,65.9z"/>
    <path class="st0" d="M52.2,50.2v0.3h-0.1l2,3.6l0.2-0.3l-6.6-11.5c-0.1,0-0.2,0-0.3,0.1l4.6,7.9H52.2L52.2,50.2z"/>
    <path class="st0" d="M47.7,50.3l0.3,0.1l0,0.1h4.1l-0.2-0.3H38.5c0,0.1-0.1,0.2-0.1,0.3h9.1L47.7,50.3z"/>
    <polygon class="st0" points="52.2,50.2 51.9,50.2 52.1,50.5 52.2,50.5"/>
    <path class="st0" d="M40.6,62.6l0.3,0.1l0.3-0.5c-0.1-0.1-0.1-0.2-0.2-0.2L40.6,62.6z"/>
    <path class="st0" d="M45.6,54.2l0.3-0.1l0,0.1l2.1-3.6h-0.4l-6.7,11.5c0.1,0.1,0.1,0.2,0.2,0.2l4.6-7.9L45.6,54.2z"/>
    <polygon class="st0" points="47.7,50.3 47.6,50.5 47.9,50.5 48,50.4"/>
    <path class="st0" d="M47.8,58v-0.3h0.1l-2-3.6l-0.2,0.3L52.3,66c0.1,0,0.2,0,0.3-0.1L48.1,58L47.8,58L47.8,58z"/>
    <polygon class="st0" points="45.6,54.2 45.7,54.4 45.9,54.1 45.8,54"/>
    <path class="st0" d="M61.5,58h0.6v-0.3h-0.5C61.5,57.8,61.5,57.9,61.5,58z"/>
    <path class="st0" d="M52.4,57.7l-0.1,0.2L52,57.8l0-0.1h-4.1l0.2,0.3h13.3c0-0.1,0.1-0.2,0.1-0.3L52.4,57.7L52.4,57.7z"/>
    <polygon class="st0" points="47.8,58 48.1,58 47.9,57.7 47.8,57.7"/>
    <path class="st0" d="M59.3,45.5l-0.3-0.1l-0.2,0.4c0.1,0.1,0.1,0.2,0.2,0.2L59.3,45.5z"/>
    <path class="st0" d="M54.4,54l-0.3,0.1l0-0.1l-2,3.6h0.4L59.1,46c-0.1-0.1-0.1-0.2-0.2-0.2l-4.5,8L54.4,54z"/>
    <polygon class="st0" points="54.4,54 54.3,53.8 54.1,54.1 54.2,54.2"/>
    <polygon class="st0" points="52,57.8 52.3,57.9 52.4,57.7 52.1,57.7"/>
</svg>
